<?xml version="1.0" standalone="no"?>
<!DOCTYPE svg PUBLIC "-//W3C//DTD SVG 20010904//EN"
 "http://www.w3.org/TR/2001/REC-SVG-20010904/DTD/svg10.dtd">
<svg version="1.0" xmlns="http://www.w3.org/2000/svg"
 width="1070.000000pt" height="858.000000pt" viewBox="0 0 1070.000000 858.000000"
 preserveAspectRatio="xMidYMid meet">

<g transform="translate(0.000000,858.000000) scale(0.100000,-0.100000)"
fill="#000000" stroke="none">
<path d="M0 4290 c0 -2360 2 -4290 5 -4290 3 0 1445 720 3205 1600 l3200 1600
2140 -1070 c1177 -588 2142 -1070 2145 -1070 3 0 5 1453 5 3230 0 1777 -2
3230 -5 3230 -3 0 -968 -482 -2145 -1070 l-2140 -1070 -3200 1600 c-1760 880
-3202 1600 -3205 1600 -3 0 -5 -1930 -5 -4290z m5322 546 l-1042 -521 -1075
538 -1075 537 0 -1100 0 -1100 1075 537 1075 538 1042 -521 1043 -521 -3162
-1582 -3163 -1581 0 4230 0 4230 3163 -1581 3162 -1582 -1043 -521z m5338
-546 c0 -1738 -3 -3160 -7 -3159 -5 0 -950 471 -2101 1047 l-2092 1047 1060
530 c583 291 1060 532 1060 535 0 3 -477 244 -1060 535 l-1060 530 2092 1047
c1151 576 2096 1047 2101 1047 4 1 7 -1421 7 -3159z m-3205 523 c569 -285
1035 -520 1035 -523 0 -3 -467 -238 -1037 -524 l-1038 -518 -1037 518 c-571
286 -1038 521 -1038 524 0 5 2060 1038 2072 1039 5 1 474 -232 1043 -516z
m-3235 -523 c0 -3 -461 -236 -1025 -518 l-1025 -512 0 1030 0 1030 1025 -512
c564 -282 1025 -515 1025 -518z"/>
</g>
</svg>
